<?xml version="1.0" encoding="utf-8"?>
<!-- Generator: Adobe Illustrator 22.1.0, SVG Export Plug-In . SVG Version: 6.00 Build 0)  -->
<svg version="1.1" id="Capa_1" xmlns="http://www.w3.org/2000/svg" xmlns:xlink="http://www.w3.org/1999/xlink" x="0px" y="0px"
	 viewBox="0 0 400 400" style="enable-background:new 0 0 400 400;" xml:space="preserve">
<style type="text/css">
	.st0{fill:#6DCFF6;}
</style>
<title>group-people</title>
<path class="st0" d="M200,33.2c-27.5,0-49.8,22.3-49.8,49.8s22.3,49.8,49.8,49.8s49.8-22.3,49.8-49.8l0,0l0,0
	C249.7,55.5,227.5,33.3,200,33.2z M200,126.7c-24.1,0-43.7-19.6-43.7-43.7s19.6-43.7,43.7-43.7s43.7,19.6,43.7,43.7l0,0l0,0
	c0,24.1-19.5,43.7-43.6,43.7l0,0H200z"/>
<path class="st0" d="M362.8,141.6c-12.6,0-22.8,10.2-22.8,22.8s10.2,22.8,22.8,22.8c12.6,0,22.8-10.2,22.8-22.8l0,0l0,0
	C385.6,151.9,375.4,141.6,362.8,141.6z M362.8,181.6c-9.5,0-17.2-7.7-17.2-17.2l0,0l0,0c0.1-9.4,7.8-17.1,17.2-17.2
	c9.5,0,17.1,7.6,17.2,17.1v0.1C379.9,173.9,372.2,181.5,362.8,181.6z"/>
<path class="st0" d="M104.7,100.7c-18.6,0.1-33.6,15.4-33.5,34l0,0l0,0c-0.1,18.4,14.8,33.4,33.2,33.4h0.3
	c18.6,0.1,33.8-14.8,34-33.4C138.1,115.6,123.3,100.7,104.7,100.7z M104.7,162.1c-15.4,0-27.9-12.5-27.9-27.9s12.5-27.9,27.9-27.9
	s27.9,12.5,27.9,27.9l0,0l0,0C132.5,149.6,120,162,104.7,162.1z"/>
<path class="st0" d="M37.2,141.6c-12.6,0-22.8,10.2-22.8,22.8s10.2,22.8,22.8,22.8S60,177,60,164.4l0,0
	C60,151.8,49.8,141.6,37.2,141.6z M37.2,181.6c-9.5,0-17.2-7.7-17.2-17.1l0,0c0.1-9.5,7.7-17.2,17.2-17.3c9.5,0,17.2,7.6,17.2,17.1
	l0,0C54.3,173.8,46.7,181.5,37.2,181.6z"/>
<path class="st0" d="M104.7,181.2c-29.8,0-53.9,24.2-53.9,53.9v96.7h58.6V224.4c0-14.3,3.5-28.3,10.2-40.9
	C114.7,182,109.7,181.2,104.7,181.2z M104.2,222.1v104.2H56.3v-91.2c0-22.3,12.6-36.2,29.8-45.6c6-3.2,20-4.7,26.1-3.2
	C107.1,197.6,104.4,209.7,104.2,222.1z"/>
<path class="st0" d="M295.3,100.7c-18.6,0.1-33.6,15.4-33.5,34l0,0l0,0c-0.1,18.4,14.8,33.4,33.2,33.5l0,0h0.3
	c18.6,0,33.7-15.1,33.7-33.7S314,100.7,295.3,100.7L295.3,100.7z M295.3,162.1c-15.4,0-27.9-12.5-27.9-27.9s12.5-27.9,27.9-27.9
	s27.9,12.5,27.9,27.9l0,0l0,0C323.2,149.6,310.7,162,295.3,162.1z"/>
<path class="st0" d="M200,146.3c-43.1-0.1-78.1,34.8-78.1,77.9l0,0V363h156.3V224.4C278.1,181.3,243.1,146.4,200,146.3z
	 M272.6,357.9H127.4v-134c0-40.1,32.5-72.6,72.6-72.6s72.6,32.5,72.6,72.6V357.9z"/>
<path class="st0" d="M37.2,199.8C16.7,199.8,0.1,216.4,0,237v68.4h38.6v-70.6c0.2-11.6,3.4-23,9.3-33
	C44.4,200.6,40.8,199.9,37.2,199.8z M33.5,234.7v66H4.7v-62.8c0-14,8.4-25.1,16.3-28.8c6.1-3,12.8-4.5,19.5-4.2
	C35.8,212.3,33.5,224.9,33.5,234.7z"/>
<path class="st0" d="M280,183.5c6.7,12.6,10.2,26.7,10.2,40.9v107.4h58.6v-97.1c0-29.8-24.2-53.9-54-54
	C290.2,180.7,285.1,182.1,280,183.5z M287.4,186.7c6.1-1.4,20,0,26.1,3.2c17.2,8.8,29.8,23.2,29.8,45.6v90.7h-47.5V221.7
	C295.7,209.5,292.8,197.6,287.4,186.7z"/>
<path class="st0" d="M352.1,201.6c6,10,9.2,21.4,9.3,33.1v70.7H400V237c-0.1-20.5-16.7-37.2-37.2-37.2
	C359.2,199.9,355.6,200.5,352.1,201.6z M359.5,204.4c6.7,0.1,13.4,1.5,19.5,4.2c7.9,4.2,16.3,15.3,16.3,28.8v62.8H367v-65.5
	C366.5,224.9,364.2,212.3,359.5,204.4z"/>
</svg>
