<svg id="g__icon--mission" xmlns="http://www.w3.org/2000/svg" viewBox="0 0 100 100"><path style="fill:none;stroke:#474748;stroke-width:2;stroke-linecap:round;stroke-linejoin:round;stroke-miterlimit:10" d="M89.1 29.2c3.3 6.4 5.3 13.9 5.3 20.8 0 24.4-20 44.4-44.4 44.4S5.6 74.4 5.6 50 25.6 5.6 50 5.6c7.5 0 14.7 1.9 21.4 5.5m-2.8 31.1c.8 2.5 1.7 5.3 1.7 7.8 0 11.1-9.2 20.3-20.3 20.3S29.7 61.1 29.7 50 38.9 29.7 50 29.7c2.8 0 5.5.6 8 1.7M51.9 50L92.2 6.1m-5.8 5.6l-2-9.7m-5.3 5.8l1.9 9.7m10.6 2.8l-9.7-1.9m14.9-4.1l-9.7-1.9"/></svg>