<?xml version="1.0" encoding="utf-8"?>
<!-- Generator: Adobe Illustrator 22.1.0, SVG Export Plug-In . SVG Version: 6.00 Build 0)  -->
<svg version="1.1" id="Layer_1" xmlns="http://www.w3.org/2000/svg" xmlns:xlink="http://www.w3.org/1999/xlink" x="0px" y="0px"
	 viewBox="0 0 400 400" style="enable-background:new 0 0 400 400;" xml:space="preserve">
<style type="text/css">
	.st0{fill:#6DCFF6;}
</style>
<g>
	<title>office-block</title>
	<path class="st0" d="M367.2,394.2H265.9v-46.5h33.4v34h7.4V62.8H92.8V400h274.4V394.2L367.2,394.2z M265.9,70.2h33.4v48.1h-33.4
		V70.2z M265.9,125.8h33.4v48.1h-33.4V125.8z M265.9,181.2h33.4v48.1h-33.4V181.2z M265.9,236.7h33.4v48.1h-33.4V236.7z
		 M265.9,292.3h33.4v48.1h-33.4V292.3z M133.7,394.2h-33.5v-46.5h33.4L133.7,394.2z M133.7,340.4h-33.5v-48.1h33.4L133.7,340.4z
		 M133.7,284.9h-33.5v-48.1h33.4L133.7,284.9z M133.7,229.3h-33.5v-48.1h33.4L133.7,229.3z M133.7,173.9h-33.5v-48.1h33.4
		L133.7,173.9z M133.7,118.4h-33.5V70.2h33.4L133.7,118.4z M175.3,394.2h-34.2v-46.5h34.2V394.2z M175.3,340.4h-34.2v-48.1h34.2
		V340.4z M175.3,284.9h-34.2v-48.1h34.2V284.9z M175.3,229.3h-34.2v-48.1h34.2V229.3z M175.3,173.9h-34.2v-48.1h34.2V173.9z
		 M175.3,118.4h-34.2V70.2h34.2V118.4z M216.9,394.2h-34.2v-46.5h34.2V394.2z M216.9,340.4h-34.2v-48.1h34.2V340.4z M216.9,284.9
		h-34.2v-48.1h34.2V284.9z M216.9,229.3h-34.2v-48.1h34.2V229.3z M216.9,173.9h-34.2v-48.1h34.2V173.9z M216.9,118.4h-34.2V70.2
		h34.2V118.4z M258.5,394.2h-34.2v-46.5h34.2V394.2z M258.5,340.4h-34.2v-48.1h34.2V340.4z M258.5,284.9h-34.2v-48.1h34.2V284.9z
		 M258.5,229.3h-34.2v-48.1h34.2V229.3z M258.5,173.9h-34.2v-48.1h34.2V173.9z M258.5,118.4h-34.2V70.2h34.2V118.4z"/>
	<path class="st0" d="M32.8,394.2v5.8h38.9V42.5H124V18h55.5V7.4h40.7V18h55.5v17.2H151.2v7.4h179.9v339.2h7.4V35.1H283V10.6h-55.5
		V0H172v10.7l-55.4,0.1v24.4H64.2v359.2L32.8,394.2z"/>
</g>
</svg>
